<svg version="1.1" id="Layer_1" xmlns="http://www.w3.org/2000/svg" xmlns:xlink="http://www.w3.org/1999/xlink" x="0px" y="0px"
	 width="100%" viewBox="0 0 509 152" enable-background="new 0 0 509 152" xml:space="preserve">
<path fill="#000000" opacity="1.000000" stroke="none" 
	d="
M430.000000,1.000000 
	C440.687561,1.000000 451.375122,1.000000 462.724976,1.341632 
	C461.440491,2.838657 459.401184,3.865136 457.569092,5.180249 
	C454.952850,7.058215 452.214600,8.886471 450.011505,11.196620 
	C443.918854,17.585281 442.624054,25.454895 442.873138,34.051086 
	C443.090088,41.538696 446.409607,46.705795 452.083527,51.084190 
	C459.149750,56.536995 467.808624,57.082355 475.877106,59.512508 
	C479.163971,60.502476 483.124634,61.031460 483.060364,66.150581 
	C482.992371,71.566734 480.992340,75.414436 476.111877,76.853989 
	C470.248383,78.583519 464.562408,77.747581 459.568024,74.016441 
	C453.847321,69.742729 446.841522,70.204231 443.347748,75.231514 
	C439.666931,80.527992 441.415009,86.681885 447.322357,91.146301 
	C454.822968,96.814735 463.314392,97.708664 472.355103,98.169121 
	C485.274628,98.827118 500.743469,89.631073 503.636017,73.730759 
	C506.087921,60.252590 500.870392,46.427513 487.444885,41.318348 
	C482.149078,39.302990 476.337738,38.676682 470.941284,36.877548 
	C468.133331,35.941406 464.715637,34.370110 463.470459,32.062214 
	C462.616302,30.479015 464.433624,26.616964 466.108856,24.686646 
	C469.279785,21.032957 477.574066,21.014240 481.544525,24.054205 
	C485.577332,27.141935 489.650818,28.054499 494.209625,24.983770 
	C498.088226,22.371218 500.526550,18.428946 498.704468,14.478996 
	C496.906708,10.581834 492.921082,7.676907 489.822571,4.405561 
	C488.653290,3.171040 487.280182,2.129517 486.000000,1.000010 
	C493.995514,1.000000 501.990997,1.000000 509.989868,0.999999 
	C509.993256,51.633659 509.993256,102.267326 509.993256,152.942841 
	C340.333344,152.942841 170.666656,152.942841 1.000000,152.942841 
	C1.000000,122.236214 1.000000,91.586769 1.377899,60.304092 
	C2.171175,60.495827 2.704399,61.282852 2.984008,62.151512 
	C6.424599,72.840454 11.988269,81.879967 21.166328,88.854126 
	C32.289875,97.306610 44.791157,99.149841 58.019775,97.848701 
	C62.105278,97.446861 66.309814,95.836357 69.909653,93.804489 
	C72.141518,92.544739 74.523308,89.581673 74.791100,87.157112 
	C75.865013,77.434265 69.774040,73.219543 60.185295,75.764198 
	C55.784710,76.932022 50.972145,77.150299 46.390671,76.919701 
	C33.053036,76.248352 19.761568,61.332912 22.877865,45.024620 
	C25.863272,29.401306 40.921124,19.013596 56.305199,22.559135 
	C59.831055,23.371733 63.889194,23.992949 67.214386,23.025331 
	C71.431923,21.798044 74.322456,18.276600 73.984940,13.247077 
	C73.647789,8.222964 70.409393,4.743863 64.822098,2.987078 
	C63.776508,2.658317 62.935448,1.679063 62.000000,1.000000 
	C120.354225,1.000000 178.708450,1.000000 237.760056,1.318447 
	C233.083939,5.893731 232.158386,12.220494 231.100342,18.294983 
	C227.117172,41.163307 223.362244,64.071404 219.531189,86.966179 
	C218.768387,91.524796 222.633621,97.329659 226.833694,97.985733 
	C233.757523,99.067291 239.005142,95.837585 240.003983,89.969154 
	C242.356720,76.146446 244.753799,62.331280 247.258774,47.782104 
	C253.007370,62.746311 258.442200,77.047234 264.010040,91.296181 
	C265.736908,95.715530 268.563354,98.405090 273.991943,98.128891 
	C279.245850,97.861588 282.252594,95.387596 283.966705,90.817894 
	C287.747009,80.740013 291.399506,70.613853 295.230774,60.555611 
	C296.686584,56.733559 298.490082,53.043919 300.135132,49.293930 
	C301.031464,50.925495 300.841705,52.281925 301.061157,53.568550 
	C303.011810,65.004700 305.009216,76.433090 307.047852,87.853935 
	C308.000427,93.190262 311.938782,97.739098 315.676666,97.998184 
	C324.822662,98.632149 329.568115,93.237137 327.953461,84.112869 
	C324.282471,63.368626 320.688385,42.610626 316.952545,21.878130 
	C316.058960,16.918940 315.042999,11.935510 313.471313,7.164830 
	C312.714691,4.868138 310.535187,3.040202 309.000000,1.000000 
	C315.021149,1.000000 321.042297,1.000000 327.744110,1.330730 
	C321.379333,7.137163 321.323822,10.365117 324.120514,18.104118 
	C332.317841,40.787632 340.732666,63.392536 349.057800,86.029884 
	C351.754608,93.362823 357.610687,97.695915 364.173737,98.073090 
	C372.898560,98.574486 377.775726,93.334900 380.950470,84.878891 
	C388.627686,64.430183 396.377716,44.004780 403.669708,23.418140 
	C405.648956,17.830322 409.622925,11.988004 405.244568,5.658568 
	C404.167969,4.102299 403.081757,2.552684 402.000000,0.999999 
	C407.354919,1.000000 412.709869,1.000000 418.754944,1.326842 
	C416.883728,4.592303 414.171692,7.464891 414.721558,11.968990 
	C414.364502,12.368260 414.252319,12.672713 414.074432,13.443172 
	C414.058990,37.951675 414.109253,61.994171 414.106018,86.345245 
	C414.356720,87.136810 414.660950,87.619804 414.979034,88.498558 
	C415.276459,94.701553 418.859192,98.033066 424.785370,98.000122 
	C431.086365,97.965096 434.964813,94.478539 434.979187,88.528961 
	C435.032166,66.575890 435.014435,44.622597 434.992493,22.669416 
	C434.984894,15.074634 436.428986,7.124246 430.000000,1.000000 
M201.982559,101.297951 
	C202.360962,100.214638 202.739365,99.131325 203.735580,97.702415 
	C204.196838,96.151772 204.658096,94.601128 205.769821,92.651001 
	C206.126526,90.430733 206.483215,88.210472 206.982620,85.242889 
	C207.267471,83.825966 207.552307,82.409042 207.976440,80.088341 
	C207.703293,76.367462 207.430130,72.646591 207.027771,68.110207 
	C206.367599,65.370430 205.707428,62.630657 205.007385,59.178333 
	C204.376343,57.770584 203.745300,56.362835 203.010223,54.230068 
	C201.688248,51.780453 200.366257,49.330833 198.785995,46.268303 
	C197.226456,44.495644 195.666901,42.722980 194.024826,40.240318 
	C190.695969,37.456776 187.367126,34.673233 183.758408,31.251829 
	C180.854980,29.798597 177.951538,28.345364 174.672424,26.253887 
	C171.794739,25.464548 168.917068,24.675209 165.612701,23.228809 
	C163.077377,22.874334 160.542038,22.519859 157.102493,22.024216 
	C153.551605,22.258448 150.000717,22.492680 145.667786,22.875633 
	C141.075958,24.231867 136.484116,25.588102 131.193512,27.009962 
	C129.780380,27.634333 128.367233,28.258701 126.362717,29.155727 
	C125.228271,30.066101 124.093819,30.976473 122.274078,31.998062 
	C120.500366,33.292557 118.726662,34.587051 116.370186,36.145283 
	C115.224083,37.379131 114.077980,38.612984 112.347649,40.209225 
	C110.859863,42.451962 109.372086,44.694698 107.267540,47.269875 
	C106.475197,49.162106 105.682854,51.054337 104.269501,53.291092 
	C103.473282,55.511742 102.677063,57.732388 101.221756,60.361156 
	C100.869003,62.909946 100.516251,65.458733 99.793007,68.708618 
	C99.584244,70.474281 99.375488,72.239937 99.026886,74.872154 
	C99.072456,76.916519 99.118019,78.960892 99.023697,81.778763 
	C99.404236,83.521370 99.784767,85.263977 100.035965,87.788696 
	C102.009644,92.897530 103.983315,98.006363 106.223015,103.749008 
	C108.135300,106.204338 110.047585,108.659676 111.998871,111.812218 
	C115.330864,114.823456 118.662857,117.834694 122.636612,121.152985 
	C126.322235,123.072800 130.007858,124.992615 134.046097,127.500252 
	C137.028702,128.278030 140.011322,129.055817 143.801895,129.979813 
	C146.199509,130.264236 148.597122,130.548645 151.880981,130.975708 
	C154.958481,130.664352 158.035965,130.352997 161.931671,130.010895 
	C164.660416,129.354919 167.389160,128.698959 170.850220,128.010315 
	C172.913635,127.047745 174.977036,126.085175 177.777603,125.027534 
	C180.536453,123.391922 183.295288,121.756317 186.669327,119.822083 
	C189.796432,116.584198 192.923553,113.346313 196.646072,109.824425 
	C197.472733,108.567528 198.299393,107.310623 199.696960,105.758957 
	C200.409683,104.503159 201.122406,103.247368 201.982559,101.297951 
z"/>
<path fill="#0349D4" opacity="1.000000" stroke="none" 
	d="
M308.541931,1.000000 
	C310.535187,3.040202 312.714691,4.868138 313.471313,7.164830 
	C315.042999,11.935510 316.058960,16.918940 316.952545,21.878130 
	C320.688385,42.610626 324.282471,63.368626 327.953461,84.112869 
	C329.568115,93.237137 324.822662,98.632149 315.676666,97.998184 
	C311.938782,97.739098 308.000427,93.190262 307.047852,87.853935 
	C305.009216,76.433090 303.011810,65.004700 301.061157,53.568550 
	C300.841705,52.281925 301.031464,50.925495 300.135132,49.293930 
	C298.490082,53.043919 296.686584,56.733559 295.230774,60.555611 
	C291.399506,70.613853 287.747009,80.740013 283.966705,90.817894 
	C282.252594,95.387596 279.245850,97.861588 273.991943,98.128891 
	C268.563354,98.405090 265.736908,95.715530 264.010040,91.296181 
	C258.442200,77.047234 253.007370,62.746311 247.258774,47.782104 
	C244.753799,62.331280 242.356720,76.146446 240.003983,89.969154 
	C239.005142,95.837585 233.757523,99.067291 226.833694,97.985733 
	C222.633621,97.329659 218.768387,91.524796 219.531189,86.966179 
	C223.362244,64.071404 227.117172,41.163307 231.100342,18.294983 
	C232.158386,12.220494 233.083939,5.893731 238.228714,1.318447 
	C241.692902,1.000000 245.385818,1.000000 249.320496,1.323011 
	C251.364075,4.170874 253.693344,6.473782 254.866974,9.262964 
	C258.145447,17.054407 260.941925,25.048521 263.935547,32.960037 
	C267.054230,41.202126 270.180939,49.441181 273.488739,58.168610 
	C282.991455,39.161472 286.449982,18.344826 298.000000,1.000000 
	C301.361298,1.000000 304.722565,1.000000 308.541931,1.000000 
z"/>
<path fill="#0349D4" opacity="1.000000" stroke="none" 
	d="
M401.541931,0.999999 
	C403.081757,2.552684 404.167969,4.102299 405.244568,5.658568 
	C409.622925,11.988004 405.648956,17.830322 403.669708,23.418140 
	C396.377716,44.004780 388.627686,64.430183 380.950470,84.878891 
	C377.775726,93.334900 372.898560,98.574486 364.173737,98.073090 
	C357.610687,97.695915 351.754608,93.362823 349.057800,86.029884 
	C340.732666,63.392536 332.317841,40.787632 324.120514,18.104118 
	C321.323822,10.365117 321.379333,7.137163 328.212402,1.330730 
	C331.030609,1.000000 334.061188,1.000000 337.337585,1.334147 
	C339.383148,3.890103 341.883514,5.841896 342.861786,8.380290 
	C347.188721,19.607428 351.016602,31.025667 355.146362,42.330444 
	C358.121552,50.474697 361.287903,58.549110 364.454742,66.880226 
	C365.094543,66.206558 365.579224,65.911858 365.744171,65.491661 
	C374.179962,44.001186 382.588531,22.500019 391.000000,1.000003 
	C394.361298,1.000000 397.722565,1.000000 401.541931,0.999999 
z"/>
<path fill="#0349D4" opacity="1.000000" stroke="none" 
	d="
M485.531372,1.000010 
	C487.280182,2.129517 488.653290,3.171040 489.822571,4.405561 
	C492.921082,7.676907 496.906708,10.581834 498.704468,14.478996 
	C500.526550,18.428946 498.088226,22.371218 494.209625,24.983770 
	C489.650818,28.054499 485.577332,27.141935 481.544525,24.054205 
	C477.574066,21.014240 469.279785,21.032957 466.108856,24.686646 
	C464.433624,26.616964 462.616302,30.479015 463.470459,32.062214 
	C464.715637,34.370110 468.133331,35.941406 470.941284,36.877548 
	C476.337738,38.676682 482.149078,39.302990 487.444885,41.318348 
	C500.870392,46.427513 506.087921,60.252590 503.636017,73.730759 
	C500.743469,89.631073 485.274628,98.827118 472.355103,98.169121 
	C463.314392,97.708664 454.822968,96.814735 447.322357,91.146301 
	C441.415009,86.681885 439.666931,80.527992 443.347748,75.231514 
	C446.841522,70.204231 453.847321,69.742729 459.568024,74.016441 
	C464.562408,77.747581 470.248383,78.583519 476.111877,76.853989 
	C480.992340,75.414436 482.992371,71.566734 483.060364,66.150581 
	C483.124634,61.031460 479.163971,60.502476 475.877106,59.512508 
	C467.808624,57.082355 459.149750,56.536995 452.083527,51.084190 
	C446.409607,46.705795 443.090088,41.538696 442.873138,34.051086 
	C442.624054,25.454895 443.918854,17.585281 450.011505,11.196620 
	C452.214600,8.886471 454.952850,7.058215 457.569092,5.180249 
	C459.401184,3.865136 461.440491,2.838657 463.193604,1.341632 
	C470.354248,1.000000 477.708496,1.000000 485.531372,1.000010 
z"/>
<path fill="#0349D4" opacity="1.000000" stroke="none" 
	d="
M61.531364,1.000000 
	C62.935448,1.679063 63.776508,2.658317 64.822098,2.987078 
	C70.409393,4.743863 73.647789,8.222964 73.984940,13.247077 
	C74.322456,18.276600 71.431923,21.798044 67.214386,23.025331 
	C63.889194,23.992949 59.831055,23.371733 56.305199,22.559135 
	C40.921124,19.013596 25.863272,29.401306 22.877865,45.024620 
	C19.761568,61.332912 33.053036,76.248352 46.390671,76.919701 
	C50.972145,77.150299 55.784710,76.932022 60.185295,75.764198 
	C69.774040,73.219543 75.865013,77.434265 74.791100,87.157112 
	C74.523308,89.581673 72.141518,92.544739 69.909653,93.804489 
	C66.309814,95.836357 62.105278,97.446861 58.019775,97.848701 
	C44.791157,99.149841 32.289875,97.306610 21.166328,88.854126 
	C11.988269,81.879967 6.424599,72.840454 2.984008,62.151512 
	C2.704399,61.282852 2.171175,60.495827 1.377899,59.835434 
	C1.000000,53.312355 1.000000,46.624710 1.366811,39.645981 
	C2.093096,39.024277 2.676143,38.752033 2.779921,38.354637 
	C7.563642,20.036337 19.034184,8.234659 37.167656,2.826451 
	C37.589184,2.700732 37.728859,1.629960 38.000000,1.000000 
	C45.687576,1.000000 53.375153,1.000000 61.531364,1.000000 
z"/>
<path fill="#0349D4" opacity="1.000000" stroke="none" 
	d="
M414.966431,11.874174 
	C414.171692,7.464891 416.883728,4.592303 419.222534,1.326842 
	C422.361298,1.000000 425.722565,1.000000 429.541931,1.000000 
	C436.428986,7.124246 434.984894,15.074634 434.992493,22.669416 
	C435.014435,44.622597 435.032166,66.575890 434.979187,88.528961 
	C434.964813,94.478539 431.086365,97.965096 424.785370,98.000122 
	C418.859192,98.033066 415.276459,94.701553 414.975037,88.205193 
	C414.691284,87.022934 414.425385,86.529800 414.159515,86.036667 
	C414.109253,61.994171 414.058990,37.951675 414.274292,13.312407 
	C414.770905,12.480199 414.913116,12.199712 414.966431,11.874174 
z"/>
<path fill="#000000" opacity="1.000000" stroke="none" 
	d="
M390.531372,1.000003 
	C382.588531,22.500019 374.179962,44.001186 365.744171,65.491661 
	C365.579224,65.911858 365.094543,66.206558 364.454742,66.880226 
	C361.287903,58.549110 358.121552,50.474697 355.146362,42.330444 
	C351.016602,31.025667 347.188721,19.607428 342.861786,8.380290 
	C341.883514,5.841896 339.383148,3.890103 337.791687,1.334147 
	C355.354218,1.000000 372.708466,1.000000 390.531372,1.000003 
z"/>
<path fill="#000000" opacity="1.000000" stroke="none" 
	d="
M297.531342,1.000000 
	C286.449982,18.344826 282.991455,39.161472 273.488739,58.168610 
	C270.180939,49.441181 267.054230,41.202126 263.935547,32.960037 
	C260.941925,25.048521 258.145447,17.054407 254.866974,9.262964 
	C253.693344,6.473782 251.364075,4.170874 249.781128,1.323011 
	C265.687561,1.000000 281.375122,1.000000 297.531342,1.000000 
z"/>
<path fill="#000000" opacity="1.000000" stroke="none" 
	d="
M37.531342,1.000000 
	C37.728859,1.629960 37.589184,2.700732 37.167656,2.826451 
	C19.034184,8.234659 7.563642,20.036337 2.779921,38.354637 
	C2.676143,38.752033 2.093096,39.024277 1.366811,39.177452 
	C1.000000,26.407688 1.000000,13.815374 1.000000,1.000000 
	C13.019976,1.000000 25.041328,1.000000 37.531342,1.000000 
z"/>
<path fill="#014ED4" opacity="1.000000" stroke="none" 
	d="
M131.892288,26.944338 
	C136.484116,25.588102 141.075958,24.231867 146.419464,23.053814 
	C148.116409,30.113199 149.061646,36.994408 149.624161,43.972504 
	C146.177032,44.767948 143.112640,45.466507 140.030304,45.776234 
	C137.305664,39.239716 134.598984,33.092026 131.892288,26.944338 
z"/>
<path fill="#00CFEE" opacity="1.000000" stroke="none" 
	d="
M105.956985,103.115204 
	C103.983315,98.006363 102.009644,92.897530 100.515701,87.395416 
	C107.582794,86.003899 114.170151,85.005653 120.894020,84.359879 
	C122.093155,87.289627 123.155762,89.866890 124.159683,92.616821 
	C124.100998,92.789482 124.123558,93.158066 123.842651,93.254669 
	C122.753593,93.916008 121.945435,94.480743 120.767891,95.064880 
	C115.584663,97.761261 110.770828,100.438232 105.956985,103.115204 
z"/>
<path fill="#014ED3" opacity="1.000000" stroke="none" 
	d="
M196.050674,110.108429 
	C192.923553,113.346313 189.796432,116.584198 186.213898,119.658005 
	C184.044006,117.105942 182.484024,114.585640 180.578537,112.361328 
	C177.790726,109.107033 174.755188,106.064957 172.001328,102.646912 
	C174.429520,100.183670 176.681610,98.005966 179.082092,96.142662 
	C184.837204,101.007515 190.443939,105.557976 196.050674,110.108429 
z"/>
<path fill="#00D1EF" opacity="1.000000" stroke="none" 
	d="
M207.156982,68.925713 
	C207.430130,72.646591 207.703293,76.367462 207.477432,80.542885 
	C199.691574,80.330276 192.404739,79.663132 185.051941,78.562599 
	C184.988617,76.086082 184.991211,74.042946 185.436615,71.999710 
	C192.971939,70.974976 200.064468,69.950340 207.156982,68.925713 
z"/>
<path fill="#01A3E6" opacity="1.000000" stroke="none" 
	d="
M133.693481,126.912422 
	C130.007858,124.992615 126.322235,123.072800 122.323990,120.641602 
	C123.682472,117.046181 125.353584,113.962143 127.439713,110.896347 
	C132.168930,111.164345 136.054901,110.495636 138.404175,106.055496 
	C138.609161,106.019516 139.010254,105.908409 139.260925,106.056923 
	C140.005020,106.515106 140.498444,106.824776 140.947586,107.488457 
	C138.500046,114.199120 136.096771,120.555771 133.693481,126.912422 
z"/>
<path fill="#025DD8" opacity="1.000000" stroke="none" 
	d="
M150.006897,43.875614 
	C149.061646,36.994408 148.116409,30.113199 146.810486,22.979452 
	C150.000717,22.492680 153.551605,22.258448 157.552490,22.533525 
	C157.746979,29.844688 157.491470,36.646542 157.218506,43.620148 
	C157.116165,44.141403 156.925476,44.377186 156.230469,44.378593 
	C153.890289,44.130501 151.948593,44.003059 150.006897,43.875614 
z"/>
<path fill="#015BD7" opacity="1.000000" stroke="none" 
	d="
M171.825226,102.932434 
	C174.755188,106.064957 177.790726,109.107033 180.578537,112.361328 
	C182.484024,114.585640 184.044006,117.105942 185.906281,119.807312 
	C183.295288,121.756317 180.536453,123.391922 177.364532,124.706451 
	C173.967270,118.011368 170.983078,111.637367 168.251205,105.060043 
	C169.610748,104.215302 170.717987,103.573860 171.825226,102.932434 
z"/>
<path fill="#0168D9" opacity="1.000000" stroke="none" 
	d="
M167.998901,105.263367 
	C170.983078,111.637367 173.967270,118.011368 176.995956,124.753983 
	C174.977036,126.085175 172.913635,127.047745 170.115387,127.959503 
	C168.731857,127.200294 167.714890,126.591034 167.493286,125.767693 
	C165.857056,119.688477 164.379395,113.566582 163.110138,107.288918 
	C164.911926,106.500938 166.455414,105.882156 167.998901,105.263367 
z"/>
<path fill="#0095E3" opacity="1.000000" stroke="none" 
	d="
M133.869797,127.206337 
	C136.096771,120.555771 138.500046,114.199120 141.291199,107.481430 
	C143.118637,107.773506 144.558212,108.426613 145.998627,109.506149 
	C144.997635,116.566238 143.995789,123.199913 142.993927,129.833588 
	C140.011322,129.055817 137.028702,128.278030 133.869797,127.206337 
z"/>
<path fill="#0174DC" opacity="1.000000" stroke="none" 
	d="
M162.851837,107.458115 
	C164.379395,113.566582 165.857056,119.688477 167.493286,125.767693 
	C167.714890,126.591034 168.731857,127.200294 169.749222,127.975845 
	C167.389160,128.698959 164.660416,129.354919 161.137909,129.944122 
	C159.229324,122.915741 158.114487,115.954155 157.333984,108.818062 
	C159.396164,108.248413 161.123993,107.853264 162.851837,107.458115 
z"/>
<path fill="#0180DF" opacity="1.000000" stroke="none" 
	d="
M156.999664,108.992569 
	C158.114487,115.954155 159.229324,122.915741 160.728806,129.959488 
	C158.035965,130.352997 154.958481,130.664352 151.439392,130.447174 
	C151.329971,123.000946 151.662109,116.083275 152.406738,109.093643 
	C154.212708,109.011978 155.606186,109.002274 156.999664,108.992569 
z"/>
<path fill="#02C5EB" opacity="1.000000" stroke="none" 
	d="
M207.092377,68.517960 
	C200.064468,69.950340 192.971939,70.974976 185.278168,71.755981 
	C184.383926,70.798470 184.090912,70.084595 183.929565,69.162460 
	C185.317520,67.519196 186.573807,66.084198 188.053497,64.968796 
	C194.484772,65.408592 200.260239,64.185349 205.047272,59.890884 
	C205.707428,62.630657 206.367599,65.370430 207.092377,68.517960 
z"/>
<path fill="#018AE1" opacity="1.000000" stroke="none" 
	d="
M151.994247,109.165596 
	C151.662109,116.083275 151.329971,123.000946 150.996277,130.375854 
	C148.597122,130.548645 146.199509,130.264236 143.397919,129.906708 
	C143.995789,123.199913 144.997635,116.566238 146.405151,109.350647 
	C148.538605,108.901016 150.266434,109.033310 151.994247,109.165596 
z"/>
<path fill="#01B6EA" opacity="1.000000" stroke="none" 
	d="
M127.024689,110.878105 
	C125.353584,113.962143 123.682472,117.046181 122.003113,120.488068 
	C118.662857,117.834694 115.330864,114.823456 112.024559,111.106377 
	C114.782364,108.573502 117.514488,106.746468 120.512787,105.103439 
	C122.860870,107.151009 124.942780,109.014557 127.024689,110.878105 
z"/>
<path fill="#00A3E5" opacity="1.000000" stroke="none" 
	d="
M100.163490,68.007523 
	C100.516251,65.458733 100.869003,62.909946 101.934219,60.207886 
	C108.946114,62.087971 115.245537,64.121330 121.464600,66.516159 
	C120.974052,68.264305 120.563881,69.650986 119.733002,71.018631 
	C112.929359,70.002235 106.546425,69.004883 100.163490,68.007523 
z"/>
<path fill="#036BDB" opacity="1.000000" stroke="none" 
	d="
M157.235962,43.448395 
	C157.491470,36.646542 157.746979,29.844688 158.004608,22.604109 
	C160.542038,22.519859 163.077377,22.874334 165.814636,23.987816 
	C165.377029,29.265442 164.737488,33.784058 163.884628,38.546654 
	C161.526184,40.343212 159.381073,41.895802 157.235962,43.448395 
z"/>
<path fill="#00A6E6" opacity="1.000000" stroke="none" 
	d="
M206.839905,85.990211 
	C206.483215,88.210472 206.126526,90.430733 205.045685,92.830513 
	C197.367432,90.958511 190.413330,88.907005 183.532349,86.516815 
	C183.922180,85.084694 184.238892,83.991249 185.014297,82.925064 
	C192.595306,83.964958 199.717606,84.977585 206.839905,85.990211 
z"/>
<path fill="#0096E3" opacity="1.000000" stroke="none" 
	d="
M121.544968,66.154694 
	C115.245537,64.121330 108.946114,62.087971 102.263763,60.003822 
	C102.677063,57.732388 103.473282,55.511742 104.907616,53.262085 
	C111.392601,56.163040 117.239479,59.093006 123.059570,62.342571 
	C122.536850,63.826347 122.040909,64.990524 121.544968,66.154694 
z"/>
<path fill="#0274DB" opacity="1.000000" stroke="none" 
	d="
M112.931885,39.846836 
	C114.077980,38.612984 115.224083,37.379131 116.805191,36.322975 
	C119.936935,39.528980 122.515152,42.675220 125.370872,45.545345 
	C127.371414,47.555977 129.750809,49.189674 131.827850,51.260643 
	C130.656006,52.435825 129.617325,53.342083 128.199081,54.175507 
	C122.856972,49.350731 117.894424,44.598782 112.931885,39.846836 
z"/>
<path fill="#00C6ED" opacity="1.000000" stroke="none" 
	d="
M120.246613,104.919434 
	C117.514488,106.746468 114.782364,108.573502 112.005051,110.757774 
	C110.047585,108.659676 108.135300,106.204338 106.089996,103.432106 
	C110.770828,100.438232 115.584663,97.761261 120.717239,95.470413 
	C120.772858,98.877510 120.509735,101.898468 120.246613,104.919434 
z"/>
<path fill="#018BE0" opacity="1.000000" stroke="none" 
	d="
M123.086349,62.022968 
	C117.239479,59.093006 111.392601,56.163040 105.218124,53.089821 
	C105.682854,51.054337 106.475197,49.162106 107.897842,47.245819 
	C114.160828,50.861427 119.793518,54.501091 125.308304,58.449844 
	C124.489052,59.846947 123.787697,60.934959 123.086349,62.022968 
z"/>
<path fill="#0180DF" opacity="1.000000" stroke="none" 
	d="
M125.426208,58.140755 
	C119.793518,54.501091 114.160828,50.861427 108.206223,47.079597 
	C109.372086,44.694698 110.859863,42.451962 112.639771,40.028030 
	C117.894424,44.598782 122.856972,49.350731 128.041489,54.453377 
	C127.317711,55.916306 126.371956,57.028530 125.426208,58.140755 
z"/>
<path fill="#00B0E9" opacity="1.000000" stroke="none" 
	d="
M99.978249,68.358070 
	C106.546425,69.004883 112.929359,70.002235 119.769722,71.416931 
	C120.102036,72.891182 119.976921,73.948105 119.392807,75.003639 
	C112.344788,74.670044 105.755760,74.337822 99.166733,74.005600 
	C99.375488,72.239937 99.584244,70.474281 99.978249,68.358070 
z"/>
<path fill="#00C5EC" opacity="1.000000" stroke="none" 
	d="
M120.757492,84.007401 
	C114.170151,85.005653 107.582794,86.003899 100.580376,87.004364 
	C99.784767,85.263977 99.404236,83.521370 99.511627,81.388367 
	C106.625069,80.333458 113.250572,79.668953 119.974716,79.356369 
	C120.301407,81.141327 120.529449,82.574364 120.757492,84.007401 
z"/>
<path fill="#00BBEB" opacity="1.000000" stroke="none" 
	d="
M119.876076,79.004440 
	C113.250572,79.668953 106.625069,80.333458 99.581573,81.001610 
	C99.118019,78.960892 99.072456,76.916519 99.096809,74.438873 
	C105.755760,74.337822 112.344788,74.670044 119.458008,75.400497 
	C119.946823,76.867302 119.911446,77.935875 119.876076,79.004440 
z"/>
<path fill="#0160D8" opacity="1.000000" stroke="none" 
	d="
M122.959373,31.886847 
	C124.093819,30.976473 125.228271,30.066101 126.797226,29.344650 
	C130.483536,35.604755 133.735336,41.675934 136.725525,47.951416 
	C135.327820,48.822369 134.191727,49.489017 133.036499,49.777584 
	C131.751602,47.167057 130.497238,44.928047 129.217484,42.703648 
	C127.140205,39.093010 125.046272,35.491951 122.959373,31.886847 
z"/>
<path fill="#016ADA" opacity="1.000000" stroke="none" 
	d="
M122.616730,31.942455 
	C125.046272,35.491951 127.140205,39.093010 129.217484,42.703648 
	C130.497238,44.928047 131.751602,47.167057 132.930557,50.000458 
	C132.605713,50.858608 132.311462,50.988705 131.961014,50.991707 
	C129.750809,49.189674 127.371414,47.555977 125.370872,45.545345 
	C122.515152,42.675220 119.936935,39.528980 117.096581,36.191109 
	C118.726662,34.587051 120.500366,33.292557 122.616730,31.942455 
z"/>
<path fill="#0276DD" opacity="1.000000" stroke="none" 
	d="
M164.097946,38.302677 
	C164.737488,33.784058 165.377029,29.265442 166.027985,24.316349 
	C168.917068,24.675209 171.794739,25.464548 174.713989,26.912750 
	C173.835190,30.662775 172.914841,33.753941 171.593155,36.915230 
	C168.827194,37.424461 166.462570,37.863571 164.097946,38.302677 
z"/>
<path fill="#01BCEB" opacity="1.000000" stroke="none" 
	d="
M205.027313,59.534611 
	C200.260239,64.185349 194.484772,65.408592 188.107483,64.650749 
	C188.522720,62.647179 189.107361,61.281250 190.080872,59.909698 
	C194.684586,58.254414 198.899429,56.604748 203.114258,54.955086 
	C203.745300,56.362835 204.376343,57.770584 205.027313,59.534611 
z"/>
<path fill="#0156D5" opacity="1.000000" stroke="none" 
	d="
M136.987137,47.747116 
	C133.735336,41.675934 130.483536,35.604755 127.092926,29.208323 
	C128.367233,28.258701 129.780380,27.634333 131.542908,26.977150 
	C134.598984,33.092026 137.305664,39.239716 139.847198,46.005844 
	C138.783722,46.998558 137.885437,47.372833 136.987137,47.747116 
z"/>
<path fill="#00C0EC" opacity="1.000000" stroke="none" 
	d="
M206.911270,85.616547 
	C199.717606,84.977585 192.595306,83.964958 185.023132,82.529640 
	C184.754807,81.069962 184.936340,80.032974 185.117889,78.995987 
	C192.404739,79.663132 199.691574,80.330276 207.407776,80.994774 
	C207.552307,82.409042 207.267471,83.825966 206.911270,85.616547 
z"/>
<path fill="#0284E0" opacity="1.000000" stroke="none" 
	d="
M171.994476,36.845100 
	C172.914841,33.753941 173.835190,30.662775 174.901825,27.231873 
	C177.951538,28.345364 180.854980,29.798597 183.883911,31.950409 
	C182.967499,34.891518 181.925598,37.134045 180.517609,39.270927 
	C177.432480,38.391888 174.713486,37.618496 171.994476,36.845100 
z"/>
<path fill="#0090E1" opacity="1.000000" stroke="none" 
	d="
M183.459229,86.855492 
	C190.413330,88.907005 197.367432,90.958511 204.720459,93.030258 
	C204.658096,94.601128 204.196838,96.151772 203.056122,97.827583 
	C195.671722,95.298721 188.966766,92.644691 182.286072,89.708008 
	C182.693283,88.568733 183.076263,87.712112 183.459229,86.855492 
z"/>
<path fill="#0597E5" opacity="1.000000" stroke="none" 
	d="
M180.883698,39.376572 
	C181.925598,37.134045 182.967499,34.891518 184.023834,32.269341 
	C187.367126,34.673233 190.695969,37.456776 193.753632,40.744019 
	C191.599716,42.951653 189.716995,44.655586 187.562378,46.151413 
	C185.154877,43.754395 183.019287,41.565479 180.883698,39.376572 
z"/>
<path fill="#00B0E9" opacity="1.000000" stroke="none" 
	d="
M203.062241,54.592575 
	C198.899429,56.604748 194.684586,58.254414 190.102692,59.470894 
	C189.811646,56.692669 189.887665,54.347633 190.338089,51.996994 
	C193.489746,50.288006 196.266998,48.584614 199.044266,46.881218 
	C200.366257,49.330833 201.688248,51.780453 203.062241,54.592575 
z"/>
<path fill="#015FD8" opacity="1.000000" stroke="none" 
	d="
M196.348373,109.966431 
	C190.443939,105.557976 184.837204,101.007515 179.164490,95.847649 
	C179.702118,94.431839 180.305740,93.625427 181.058777,93.135651 
	C187.180817,97.652763 193.153427,101.853249 199.126053,106.053726 
	C198.299393,107.310623 197.472733,108.567528 196.348373,109.966431 
z"/>
<path fill="#0171DB" opacity="1.000000" stroke="none" 
	d="
M199.411499,105.906342 
	C193.153427,101.853249 187.180817,97.652763 181.094879,92.850845 
	C181.303619,91.794884 181.625641,91.340370 182.105850,91.199844 
	C188.787720,95.006416 195.311432,98.498993 201.835129,101.991577 
	C201.122406,103.247368 200.409683,104.503159 199.411499,105.906342 
z"/>
<path fill="#01A5E7" opacity="1.000000" stroke="none" 
	d="
M198.915131,46.574760 
	C196.266998,48.584614 193.489746,50.288006 190.151886,51.711891 
	C189.005615,49.741432 188.419952,48.050472 187.834274,46.359520 
	C189.716995,44.655586 191.599716,42.951653 193.794891,41.099022 
	C195.666901,42.722980 197.226456,44.495644 198.915131,46.574760 
z"/>
<path fill="#0180DF" opacity="1.000000" stroke="none" 
	d="
M201.908844,101.644760 
	C195.311432,98.498993 188.787720,95.006416 182.125763,90.955490 
	C181.987503,90.397141 182.261826,89.990662 182.261826,89.990662 
	C188.966766,92.644691 195.671722,95.298721 202.747223,98.000381 
	C202.739365,99.131325 202.360962,100.214638 201.908844,101.644760 
z"/>
<path fill="#0B4DDE" opacity="1.000000" stroke="none" 
	d="
M414.106018,86.345245 
	C414.425385,86.529800 414.691284,87.022934 414.961182,87.809433 
	C414.660950,87.619804 414.356720,87.136810 414.106018,86.345245 
z"/>
<path fill="#0B4DDE" opacity="1.000000" stroke="none" 
	d="
M414.721558,11.968990 
	C414.913116,12.199712 414.770905,12.480199 414.339966,12.846400 
	C414.252319,12.672713 414.364502,12.368260 414.721558,11.968990 
z"/>
<path fill="#000102" opacity="1.000000" stroke="none" 
	d="
M182.286072,89.708008 
	C182.261826,89.990662 181.987503,90.397141 181.967590,90.641495 
	C181.625641,91.340370 181.303619,91.794884 180.945480,92.534210 
	C180.305740,93.625427 179.702118,94.431839 179.016113,95.533257 
	C176.681610,98.005966 174.429520,100.183670 172.001328,102.646896 
	C170.717987,103.573860 169.610748,104.215302 168.251205,105.060051 
	C166.455414,105.882156 164.911926,106.500938 163.110138,107.288918 
	C161.123993,107.853264 159.396164,108.248413 157.333984,108.818069 
	C155.606186,109.002274 154.212708,109.011978 152.406738,109.093643 
	C150.266434,109.033310 148.538605,108.901016 146.404282,108.924225 
	C144.558212,108.426613 143.118637,107.773506 141.335464,107.127419 
	C140.498444,106.824776 140.005020,106.515106 139.309540,105.671448 
	C140.864380,100.809273 140.081009,96.899315 136.753174,93.727272 
	C132.998505,90.148376 128.637375,90.545647 124.218369,92.444160 
	C123.155762,89.866890 122.093155,87.289627 120.894012,84.359879 
	C120.529449,82.574364 120.301407,81.141327 119.974716,79.356369 
	C119.911446,77.935875 119.946823,76.867302 119.917000,75.401878 
	C119.976921,73.948105 120.102036,72.891182 120.190430,71.435974 
	C120.563881,69.650986 120.974052,68.264305 121.464600,66.516159 
	C122.040909,64.990524 122.536850,63.826347 123.059570,62.342571 
	C123.787697,60.934959 124.489052,59.846947 125.308304,58.449848 
	C126.371956,57.028530 127.317711,55.916306 128.421051,54.526207 
	C129.617325,53.342083 130.656006,52.435825 131.827850,51.260639 
	C132.311462,50.988705 132.605713,50.858608 132.949677,50.378540 
	C134.191727,49.489017 135.327820,48.822369 136.725525,47.951416 
	C137.885437,47.372833 138.783722,46.998558 139.865143,46.394676 
	C143.112640,45.466507 146.177032,44.767948 149.624161,43.972504 
	C151.948593,44.003059 153.890289,44.130501 155.971588,44.740406 
	C153.475967,49.665798 152.300980,54.358372 153.484528,59.521877 
	C156.406540,72.269943 171.971039,79.101372 183.797897,69.370720 
	C184.090912,70.084595 184.383926,70.798470 184.835373,71.756088 
	C184.991211,74.042946 184.988617,76.086082 185.051941,78.562599 
	C184.936340,80.032974 184.754807,81.069962 184.564438,82.502380 
	C184.238892,83.991249 183.922180,85.084694 183.532349,86.516815 
	C183.076263,87.712112 182.693283,88.568733 182.286072,89.708008 
z"/>
<path fill="#83D9F3" opacity="1.000000" stroke="none" 
	d="
M120.512787,105.103439 
	C120.509735,101.898468 120.772858,98.877510 121.086624,95.451019 
	C121.945435,94.480743 122.753593,93.916008 124.121399,93.401443 
	C129.187103,97.664909 133.693146,101.878197 138.199203,106.091476 
	C136.054901,110.495636 132.168930,111.164345 127.439713,110.896347 
	C124.942780,109.014557 122.860870,107.151009 120.512787,105.103439 
z"/>
<path fill="#838484" opacity="1.000000" stroke="none" 
	d="
M138.404175,106.055496 
	C133.693146,101.878197 129.187103,97.664909 124.402306,93.304840 
	C124.123558,93.158066 124.100998,92.789482 124.159683,92.616821 
	C128.637375,90.545647 132.998505,90.148376 136.753174,93.727272 
	C140.081009,96.899315 140.864380,100.809273 139.058868,105.522934 
	C139.010254,105.908409 138.609161,106.019516 138.404175,106.055496 
z"/>
<path fill="#FBFCFD" opacity="1.000000" stroke="none" 
	d="
M183.929565,69.162460 
	C171.971039,79.101372 156.406540,72.269943 153.484528,59.521877 
	C152.300980,54.358372 153.475967,49.665798 156.370087,44.861061 
	C156.925476,44.377186 157.116165,44.141403 157.218506,43.620148 
	C159.381073,41.895802 161.526184,40.343212 163.884628,38.546654 
	C166.462570,37.863571 168.827194,37.424461 171.593140,36.915230 
	C174.713486,37.618496 177.432480,38.391888 180.517593,39.270927 
	C183.019287,41.565479 185.154877,43.754395 187.562378,46.151413 
	C188.419952,48.050472 189.005615,49.741432 189.777496,51.717491 
	C189.887665,54.347633 189.811646,56.692669 189.713806,59.476517 
	C189.107361,61.281250 188.522720,62.647179 187.884079,64.331154 
	C186.573807,66.084198 185.317520,67.519196 183.929565,69.162460 
z"/>
</svg>